<?xml version="1.0" standalone="no"?>
<!DOCTYPE svg PUBLIC "-//W3C//DTD SVG 20010904//EN"
 "http://www.w3.org/TR/2001/REC-SVG-20010904/DTD/svg10.dtd">
<svg version="1.0" xmlns="http://www.w3.org/2000/svg"
 width="192.000000pt" height="192.000000pt" viewBox="0 0 192.000000 192.000000"
 preserveAspectRatio="xMidYMid meet">
<metadata>
Created by potrace 1.14, written by Peter Selinger 2001-2017
</metadata>
<g transform="translate(0.000000,192.000000) scale(0.100000,-0.100000)"
fill="#000000" stroke="none">
<path d="M927 1513 c-1 0 -20 -4 -41 -7 -114 -18 -212 -68 -305 -154 -30 -28
-111 -139 -111 -153 0 -4 -5 -20 -11 -36 -6 -15 -9 -28 -8 -28 1 0 -3 -10 -9
-22 -11 -21 -13 -21 -69 -6 -71 18 -113 42 -92 53 31 17 62 22 54 10 -5 -9 -1
-9 16 1 13 7 38 12 54 12 29 0 48 14 39 28 -4 7 -137 4 -244 -6 -85 -8 -166
-31 -174 -50 -6 -16 28 -58 38 -48 3 4 6 1 6 -5 0 -6 9 -9 20 -7 13 2 20 -2
20 -11 0 -8 5 -14 11 -14 5 0 7 5 4 10 -13 20 14 9 31 -12 9 -13 14 -16 11 -7
-4 14 0 15 39 6 25 -6 45 -17 47 -26 4 -12 5 -11 6 3 1 20 1 20 17 0 8 -10 13
-13 9 -7 -3 7 -1 13 4 13 6 0 11 -6 11 -12 0 -8 3 -9 8 -3 5 7 21 7 50 0 25
-6 40 -15 35 -20 -4 -5 1 -3 11 5 13 10 17 10 12 3 -4 -7 -3 -13 1 -13 5 0 9
-17 8 -37 -1 -112 66 -263 158 -355 61 -61 183 -130 254 -144 l33 -6 2 248 c3
213 5 249 18 250 8 0 20 -2 25 -5 18 -10 35 -9 41 0 8 13 25 0 18 -14 -3 -7 1
-4 9 6 20 24 21 24 40 8 10 -7 17 -10 17 -5 0 5 5 2 10 -6 7 -11 10 -11 10 -2
0 8 9 11 28 8 15 -2 29 -5 32 -5 9 -2 2 -170 -9 -222 -24 -112 -88 -193 -175
-222 -87 -29 -29 -60 99 -52 117 7 157 17 237 57 82 42 208 154 208 186 0 6 4
12 8 12 12 0 59 107 68 155 5 22 9 43 10 48 1 4 2 13 3 21 1 11 15 14 56 14
30 -1 58 2 62 5 3 4 13 7 22 7 14 0 14 -2 1 -10 -8 -5 -10 -10 -5 -10 6 0 16
5 23 12 16 16 54 18 71 4 11 -8 13 -8 8 1 -7 11 20 26 39 22 22 -4 45 2 40 10
-3 5 1 11 9 15 24 9 6 35 -39 54 -37 17 -134 43 -208 57 -16 3 -39 7 -52 10
-20 4 -23 2 -19 -15 5 -18 43 -49 43 -35 0 3 9 1 21 -6 12 -6 17 -15 13 -19
-12 -11 -84 -30 -85 -22 -16 144 -104 291 -225 378 -42 29 -144 75 -180 81
l-31 5 -3 -168 c-1 -93 -3 -198 -4 -234 l-1 -65 -105 3 c-160 5 -145 -7 -144
108 1 171 48 264 159 315 47 21 63 33 59 44 -4 8 -18 15 -33 16 -112 3 -133 4
-134 2z"/>
<path d="M330 1020 c0 -5 5 -10 11 -10 5 0 7 5 4 10 -3 6 -8 10 -11 10 -2 0
-4 -4 -4 -10z"/>
</g>
</svg>
